<svg id="svg" version="1.1" xmlns="http://www.w3.org/2000/svg" xmlns:xlink="http://www.w3.org/1999/xlink" width="400" height="400" viewBox="0, 0, 400,400"><g id="svgg"><path id="path0" d="M109.600 106.200 L 109.600 121.600 143.800 121.600 L 178.000 121.600 178.000 106.200 L 178.000 90.800 143.800 90.800 L 109.600 90.800 109.600 106.200 M309.600 106.200 L 309.600 121.600 343.800 121.600 L 378.000 121.600 378.000 106.200 L 378.000 90.800 343.800 90.800 L 309.600 90.800 309.600 106.200 M266.000 200.000 L 266.000 215.200 300.000 215.200 L 334.000 215.200 334.000 200.000 L 334.000 184.800 300.000 184.800 L 266.000 184.800 266.000 200.000 M166.000 300.000 L 166.000 315.200 200.000 315.200 L 234.000 315.200 234.000 300.000 L 234.000 284.800 200.000 284.800 L 166.000 284.800 166.000 300.000 " stroke="none" fill="#84dccc" fill-rule="evenodd"></path><path id="path1" d="M22.000 106.200 L 22.000 121.600 56.200 121.600 L 90.400 121.600 90.400 106.200 L 90.400 90.800 56.200 90.800 L 22.000 90.800 22.000 106.200 M222.000 106.200 L 222.000 121.600 256.200 121.600 L 290.400 121.600 290.400 106.200 L 290.400 90.800 256.200 90.800 L 222.000 90.800 222.000 106.200 M65.783 184.899 C 65.677 185.176,65.637 192.152,65.695 200.401 L 65.800 215.400 100.000 215.400 L 134.200 215.400 134.200 200.000 L 134.200 184.600 100.088 184.498 C 72.960 184.416,65.937 184.499,65.783 184.899 " stroke="none" fill="#cca4c4" fill-rule="evenodd"></path><path id="path2" d="M53.500 128.276 C 52.534 128.528,52.412 152.069,53.371 153.029 C 53.852 153.509,57.307 153.600,75.171 153.600 L 96.400 153.600 96.400 165.557 C 96.400 179.111,96.079 178.000,100.000 178.000 C 103.921 178.000,103.600 179.111,103.600 165.557 L 103.600 153.600 124.829 153.600 C 142.693 153.600,146.148 153.509,146.629 153.029 C 147.098 152.559,147.200 150.326,147.200 140.475 L 147.200 128.493 146.300 128.252 C 145.805 128.119,144.680 128.011,143.800 128.011 C 140.150 128.011,140.400 127.317,140.400 137.447 L 140.400 146.400 100.000 146.400 L 59.600 146.400 59.600 137.447 C 59.600 128.500,59.599 128.493,58.700 128.252 C 57.691 127.982,54.571 127.996,53.500 128.276 M253.500 128.276 C 252.534 128.528,252.412 152.069,253.371 153.029 C 253.852 153.509,257.307 153.600,275.171 153.600 L 296.400 153.600 296.400 165.557 C 296.400 179.111,296.079 178.000,300.000 178.000 C 303.921 178.000,303.600 179.111,303.600 165.557 L 303.600 153.600 324.829 153.600 C 342.693 153.600,346.148 153.509,346.629 153.029 C 347.098 152.559,347.200 150.326,347.200 140.475 L 347.200 128.493 346.300 128.252 C 345.805 128.119,344.680 128.011,343.800 128.011 C 340.150 128.011,340.400 127.317,340.400 137.447 L 340.400 146.400 300.000 146.400 L 259.600 146.400 259.600 137.447 C 259.600 128.500,259.599 128.493,258.700 128.252 C 257.691 127.982,254.571 127.996,253.500 128.276 M96.900 222.265 C 96.112 222.583,96.181 252.238,96.971 253.029 C 97.461 253.518,104.667 253.600,146.971 253.600 L 196.400 253.600 196.400 265.557 C 196.400 279.111,196.079 278.000,200.000 278.000 C 203.921 278.000,203.600 279.111,203.600 265.557 L 203.600 253.600 253.029 253.600 C 295.333 253.600,302.539 253.518,303.029 253.029 C 303.503 252.554,303.600 249.926,303.600 237.471 C 303.600 220.499,303.949 222.000,300.000 222.000 C 296.079 222.000,296.400 220.889,296.400 234.443 L 296.400 246.400 200.000 246.400 L 103.600 246.400 103.600 234.443 C 103.600 223.908,103.525 222.457,102.967 222.243 C 102.221 221.957,97.623 221.973,96.900 222.265 " stroke="none" fill="#5c4c04" fill-rule="evenodd"></path><path id="path3" d="M15.700 84.598 C 14.921 85.483,14.978 127.035,15.760 127.817 C 16.597 128.655,95.803 128.655,96.640 127.817 C 97.484 126.973,97.473 85.415,96.629 84.571 C 95.773 83.716,16.454 83.742,15.700 84.598 M103.300 84.598 C 102.521 85.483,102.578 127.035,103.360 127.817 C 104.197 128.655,183.403 128.655,184.240 127.817 C 185.084 126.973,185.073 85.415,184.229 84.571 C 183.373 83.716,104.054 83.742,103.300 84.598 M215.700 84.598 C 214.921 85.483,214.978 127.035,215.760 127.817 C 216.597 128.655,295.803 128.655,296.640 127.817 C 297.484 126.973,297.473 85.415,296.629 84.571 C 295.773 83.716,216.454 83.742,215.700 84.598 M303.300 84.598 C 302.521 85.483,302.578 127.035,303.360 127.817 C 304.197 128.655,383.403 128.655,384.240 127.817 C 385.084 126.973,385.073 85.415,384.229 84.571 C 383.373 83.716,304.054 83.742,303.300 84.598 M90.600 106.200 L 90.600 121.800 56.300 121.902 L 22.000 122.004 22.000 106.200 L 22.000 90.396 56.300 90.498 L 90.600 90.600 90.600 106.200 M178.200 106.200 L 178.200 121.800 143.800 121.800 L 109.400 121.800 109.295 106.601 C 109.237 98.242,109.277 91.176,109.383 90.899 C 109.537 90.499,116.606 90.416,143.888 90.498 L 178.200 90.600 178.200 106.200 M290.600 106.200 L 290.600 121.800 256.300 121.902 L 222.000 122.004 222.000 106.200 L 222.000 90.396 256.300 90.498 L 290.600 90.600 290.600 106.200 M378.200 106.200 L 378.200 121.800 343.800 121.800 L 309.400 121.800 309.295 106.601 C 309.237 98.242,309.277 91.176,309.383 90.899 C 309.537 90.499,316.606 90.416,343.888 90.498 L 378.200 90.600 378.200 106.200 M59.300 178.208 C 58.523 179.075,58.578 221.035,59.357 221.814 C 60.189 222.647,139.811 222.647,140.643 221.814 C 141.472 220.986,141.472 179.015,140.643 178.186 C 139.810 177.353,60.048 177.374,59.300 178.208 M259.300 178.208 C 258.523 179.075,258.578 221.035,259.357 221.814 C 260.189 222.647,339.811 222.647,340.643 221.814 C 341.472 220.986,341.472 179.015,340.643 178.186 C 339.810 177.353,260.048 177.374,259.300 178.208 M134.400 200.000 L 134.400 215.600 100.000 215.600 L 65.600 215.600 65.600 200.000 L 65.600 184.400 100.000 184.400 L 134.400 184.400 134.400 200.000 M334.400 200.000 L 334.400 215.600 300.000 215.600 L 265.600 215.600 265.600 200.000 L 265.600 184.400 300.000 184.400 L 334.400 184.400 334.400 200.000 M159.300 278.208 C 158.511 279.089,158.579 321.036,159.371 321.829 C 160.230 322.688,239.770 322.688,240.629 321.829 C 241.470 320.987,241.484 279.027,240.643 278.186 C 239.810 277.353,160.048 277.374,159.300 278.208 M234.400 300.000 L 234.400 315.600 200.000 315.600 L 165.600 315.600 165.600 300.000 L 165.600 284.400 200.000 284.400 L 234.400 284.400 234.400 300.000 " stroke="none" fill="#2cac04" fill-rule="evenodd"></path><path id="path4" d="M56.100 90.699 L 90.400 90.804 90.400 106.200 L 90.400 121.596 56.100 121.701 L 21.800 121.807 56.200 121.803 L 90.600 121.800 90.600 106.200 L 90.600 90.600 56.200 90.597 L 21.800 90.593 56.100 90.699 M109.383 90.899 C 109.277 91.176,109.237 98.242,109.295 106.601 L 109.400 121.800 143.800 121.800 L 178.200 121.800 178.200 106.200 L 178.200 90.600 143.888 90.498 C 116.606 90.416,109.537 90.499,109.383 90.899 M256.100 90.699 L 290.400 90.804 290.400 106.200 L 290.400 121.596 256.100 121.701 L 221.800 121.807 256.200 121.803 L 290.600 121.800 290.600 106.200 L 290.600 90.600 256.200 90.597 L 221.800 90.593 256.100 90.699 M309.383 90.899 C 309.277 91.176,309.237 98.242,309.295 106.601 L 309.400 121.800 343.800 121.800 L 378.200 121.800 378.200 106.200 L 378.200 90.600 343.888 90.498 C 316.606 90.416,309.537 90.499,309.383 90.899 M178.000 106.200 L 178.000 121.600 143.800 121.600 L 109.600 121.600 109.600 106.200 L 109.600 90.800 143.800 90.800 L 178.000 90.800 178.000 106.200 M378.000 106.200 L 378.000 121.600 343.800 121.600 L 309.600 121.600 309.600 106.200 L 309.600 90.800 343.800 90.800 L 378.000 90.800 378.000 106.200 M265.600 200.000 L 265.600 215.600 300.000 215.600 L 334.400 215.600 334.400 200.000 L 334.400 184.400 300.000 184.400 L 265.600 184.400 265.600 200.000 M334.000 200.000 L 334.000 215.200 300.000 215.200 L 266.000 215.200 266.000 200.000 L 266.000 184.800 300.000 184.800 L 334.000 184.800 334.000 200.000 M165.600 300.000 L 165.600 315.600 200.000 315.600 L 234.400 315.600 234.400 300.000 L 234.400 284.400 200.000 284.400 L 165.600 284.400 165.600 300.000 M234.000 300.000 L 234.000 315.200 200.000 315.200 L 166.000 315.200 166.000 300.000 L 166.000 284.800 200.000 284.800 L 234.000 284.800 234.000 300.000 " stroke="none" fill="#58e098" fill-rule="evenodd"></path></g></svg>